<?xml version="1.0" encoding="UTF-8"?><svg xmlns="http://www.w3.org/2000/svg" xmlns:xlink="http://www.w3.org/1999/xlink" viewBox="0 0 375.69 34.97"><defs><style>.cls-1{fill:url(#linear-gradient-3);}.cls-1,.cls-2,.cls-3,.cls-4,.cls-5,.cls-6,.cls-7,.cls-8{mix-blend-mode:multiply;}.cls-2{fill:url(#linear-gradient);}.cls-3{fill:url(#linear-gradient-4);}.cls-9{fill:#1fd0e0;}.cls-10{isolation:isolate;}.cls-4{fill:url(#linear-gradient-6);}.cls-11{fill:url(#Gradient_22);}.cls-5{fill:url(#linear-gradient-5);}.cls-6{fill:url(#linear-gradient-8);}.cls-7{fill:url(#linear-gradient-2);}.cls-8{fill:url(#linear-gradient-7);}</style><linearGradient id="Gradient_22" x1="198.55" y1="3.56" x2="219.13" y2="24.14" gradientUnits="userSpaceOnUse"><stop offset="0" stop-color="#9cff87"/><stop offset="1" stop-color="#1fd0e0"/></linearGradient><linearGradient id="linear-gradient" x1="4731.38" y1="-961.51" x2="4731.38" y2="-954.38" gradientTransform="translate(4930.81 -938.31) rotate(-180)" gradientUnits="userSpaceOnUse"><stop offset="0" stop-color="#1fd0e0"/><stop offset=".03" stop-color="#26b0e1"/><stop offset=".29" stop-color="#68c8ea"/><stop offset=".62" stop-color="#b8e5f5"/><stop offset=".86" stop-color="#ebf7fc"/><stop offset=".98" stop-color="#fff"/></linearGradient><linearGradient id="linear-gradient-2" x1="1443.99" y1="-2528.23" x2="1443.99" y2="-2521.11" gradientTransform="translate(2734.77 1448.42) rotate(-90)" xlink:href="#linear-gradient"/><linearGradient id="linear-gradient-3" x1="3163.36" y1="1968.92" x2="3163.36" y2="1976.05" gradientTransform="translate(2187.12 -3133.04) rotate(90)" gradientUnits="userSpaceOnUse"><stop offset="0" stop-color="#1fd0e0"/><stop offset=".03" stop-color="#26b0e1"/><stop offset=".43" stop-color="#7ed0ed"/><stop offset=".98" stop-color="#fff"/></linearGradient><linearGradient id="linear-gradient-4" x1="225.31" y1="11.54" x2="225.31" y2="18.67" gradientTransform="matrix(1, 0, 0, 1, 0, 0)" xlink:href="#linear-gradient-3"/><linearGradient id="linear-gradient-5" x1="206.46" y1="24.94" x2="206.46" y2="29.12" gradientTransform="matrix(1, 0, 0, 1, 0, 0)" xlink:href="#linear-gradient-3"/><linearGradient id="linear-gradient-6" x1="2237.58" y1="-3174.83" x2="2237.58" y2="-3170.65" gradientTransform="translate(3394.75 2260.87) rotate(-90)" xlink:href="#linear-gradient-3"/><linearGradient id="linear-gradient-7" x1="5147.1" y1="-1431.87" x2="5147.1" y2="-1427.69" gradientTransform="translate(5365.38 -1422.06) rotate(-180)" xlink:href="#linear-gradient-3"/><linearGradient id="linear-gradient-8" x1="3694.39" y1="1765.82" x2="3694.39" y2="1770" gradientTransform="translate(1970.63 -3682.92) rotate(90)" xlink:href="#linear-gradient-3"/></defs><g class="cls-10"><g id="Layer_2"><g id="Layer_1-2"><g><path class="cls-11" d="M229.74,17.38c0-4.77-3.78-8.67-8.5-8.87-.2-4.72-4.1-8.5-8.87-8.5s-8.67,3.78-8.87,8.5c-4.72,.2-8.5,4.1-8.5,8.87s3.78,8.67,8.5,8.87c.2,4.72,4.1,8.5,8.87,8.5s8.67-3.78,8.87-8.5c4.72-.2,8.5-4.1,8.5-8.87Zm-8.5,4.6v-6.26c-.29-.08-.6-.13-.92-.13-1.85,0-3.35,1.5-3.35,3.35v6.93c0,2.54-2.07,4.61-4.61,4.61-2.41,0-4.4-1.86-4.6-4.23h6.26c.08-.29,.13-.6,.13-.92,0-1.85-1.5-3.35-3.35-3.35h-6.93c-2.54,0-4.61-2.07-4.61-4.61s1.86-4.4,4.23-4.6v6.26c.29,.08,.6,.13,.92,.13,1.85,0,3.35-1.5,3.35-3.35v-6.93c0-2.54,2.07-4.61,4.61-4.61s4.4,1.86,4.6,4.23h-6.26c-.08,.29-.13,.6-.13,.92,0,1.85,1.5,3.35,3.35,3.35h6.93c2.54,0,4.61,2.07,4.61,4.61,0,2.41-1.86,4.4-4.23,4.6Z"/><path class="cls-2" d="M195.35,14.87c0,.11,.58,7.1,8.14,7.1h0c-2.37-.19-4.24-2.18-4.24-4.6s1.86-4.4,4.23-4.59v-4.28c-3.85,.16-7.08,2.8-8.13,6.36Z"/><path class="cls-7" d="M214.87,.36c-.11,0-7.1,.58-7.1,8.14h0c.19-2.37,2.18-4.24,4.6-4.24s4.4,1.86,4.6,4.23h4.28c-.16-3.85-2.8-7.08-6.36-8.13Z"/><path class="cls-1" d="M209.86,34.39c.11,0,7.1-.58,7.1-8.14h0c-.19,2.37-2.18,4.24-4.6,4.24s-4.4-1.86-4.6-4.23h-4.28c.16,3.85,2.8,7.08,6.36,8.13Z"/><path class="cls-3" d="M229.38,19.88c0-.11-.58-7.1-8.14-7.1h0c2.37,.19,4.24,2.18,4.24,4.6s-1.86,4.4-4.23,4.6v4.28c3.85-.16,7.08-2.8,8.13-6.36Z"/><path class="cls-5" d="M207.77,26.26h0s-4.28,0-4.28,0c.05,1.12,.3,2.19,.73,3.17h5.19c-.92-.77-1.54-1.89-1.65-3.16Z"/><path class="cls-4" d="M221.25,21.97h0s0,0,0,0v4.28c1.12-.05,2.19-.3,3.17-.73v-5.19c-.77,.92-1.89,1.54-3.16,1.65Z"/><path class="cls-8" d="M216.96,8.5h0s4.28,0,4.28,0c-.05-1.12-.3-2.19-.73-3.17h-5.19c.92,.77,1.54,1.89,1.65,3.16Z"/><path class="cls-6" d="M203.49,12.78h0s0,0,0,0v-4.28c-1.12,.05-2.19,.3-3.17,.73v5.19c.77-.92,1.89-1.54,3.16-1.65Z"/></g><g><path class="cls-9" d="M26.55,26.98H10.94l-2.98,7.2H0L14.98,.57h7.68l15.02,33.6h-8.16l-2.98-7.2Zm-2.45-5.91l-5.33-12.87-5.33,12.87h10.66Z"/><path class="cls-9" d="M41.18,.57h7.78V27.84h16.85v6.34h-24.63V.57Z"/><path class="cls-9" d="M70.18,.57h7.78V27.84h16.85v6.34h-24.63V.57Z"/><path class="cls-9" d="M99.17,.57h7.78V34.18h-7.78V.57Z"/><path class="cls-9" d="M140.93,27.94v6.24h-26.02V.57h25.39V6.81h-17.67v7.3h15.6v6.05h-15.6v7.78h18.29Z"/><path class="cls-9" d="M147.12,.57h15.27c10.99,0,18.53,6.62,18.53,16.8s-7.54,16.8-18.53,16.8h-15.27V.57Zm14.88,27.22c6.67,0,11.04-3.98,11.04-10.42s-4.37-10.42-11.04-10.42h-7.1V27.79h7.1Z"/></g><g><path class="cls-9" d="M241,17.59c0-10.13,7.78-17.38,18.24-17.38,5.81,0,10.66,2.11,13.83,5.95l-4.99,4.61c-2.26-2.59-5.09-3.94-8.45-3.94-6.29,0-10.75,4.42-10.75,10.75s4.46,10.75,10.75,10.75c3.36,0,6.19-1.34,8.45-3.98l4.99,4.61c-3.17,3.89-8.02,6-13.87,6-10.42,0-18.19-7.25-18.19-17.38Z"/><path class="cls-9" d="M299.75,27.19h-15.6l-2.98,7.2h-7.97L288.18,.79h7.68l15.02,33.6h-8.16l-2.98-7.2Zm-2.45-5.91l-5.33-12.87-5.33,12.87h10.66Z"/><path class="cls-9" d="M335.8,34.39l-6.48-9.36h-7.15v9.36h-7.78V.79h14.54c8.98,0,14.59,4.66,14.59,12.19,0,5.04-2.54,8.74-6.91,10.61l7.54,10.8h-8.35Zm-7.3-27.27h-6.34v11.71h6.34c4.75,0,7.15-2.21,7.15-5.86s-2.4-5.86-7.15-5.86Z"/><path class="cls-9" d="M375.69,28.15v6.24h-26.02V.79h25.39V7.03h-17.67v7.3h15.6v6.05h-15.6v7.78h18.29Z"/></g></g></g></g></svg>